<?xml version="1.0" encoding="utf-8"?>
<!-- Generator: Adobe Illustrator 25.4.1, SVG Export Plug-In . SVG Version: 6.00 Build 0)  -->
<svg version="1.1" id="Layer_1" xmlns="http://www.w3.org/2000/svg" xmlns:xlink="http://www.w3.org/1999/xlink" x="0px" y="0px"
	 viewBox="0 0 1008 247.25" style="enable-background:new 0 0 1008 247.25;" xml:space="preserve">
<style type="text/css">
	.st0{fill:#368464;}
	.st1{fill:#122D2C;}
	.st2{fill:#FFFFFF;}
</style>
<g>
	<g>
		<path class="st0" d="M48.32,135.78c-1.38,3.1-2.55,6.19-3.51,9.23c-4.47,14.31-3.37,26.19,3.03,32.59
			c6.4,6.4,18.28,7.5,32.59,3.03c3.04-0.95,6.13-2.13,9.23-3.5c-7.66-5.23-15.27-11.51-22.55-18.78
			C59.83,151.05,53.55,143.44,48.32,135.78z"/>
		<path class="st0" d="M148.93,123.66c-5.49-9.04-12.56-17.98-20.87-26.29c-8.3-8.3-17.23-15.36-26.25-20.84
			c-9.03,5.49-17.96,12.55-26.25,20.84c-8.31,8.31-15.38,17.25-20.87,26.29c5.25,8.62,12.18,17.53,20.87,26.22
			c8.69,8.69,17.59,15.61,26.22,20.87c9.04-5.49,17.98-12.56,26.29-20.87C136.76,141.19,143.68,132.28,148.93,123.66z"/>
		<path class="st0" d="M89.68,70.14c-3.11-1.38-6.2-2.56-9.24-3.51c-5.8-1.81-11.2-2.71-16-2.71c-7.04,0-12.79,1.93-16.59,5.74
			c-7.63,7.63-7.72,23.45,0.46,41.87c5.31-7.82,11.64-15.45,18.8-22.61C74.25,81.77,81.88,75.45,89.68,70.14z"/>
		<path class="st0" d="M113.91,177.14c18.42,8.17,34.24,8.09,41.87,0.45c6.4-6.4,7.5-18.27,3.03-32.59
			c-0.95-3.04-2.13-6.13-3.51-9.23c-5.23,7.67-11.5,15.28-18.78,22.56C129.36,165.49,121.73,171.82,113.91,177.14z"/>
		<path class="st0" d="M155.33,111.53c8.17-18.42,8.09-34.24,0.46-41.87c-3.8-3.81-9.55-5.74-16.59-5.74c-4.8,0-10.2,0.9-16,2.71
			c-3.05,0.95-6.14,2.13-9.24,3.51c7.8,5.31,15.42,11.63,22.57,18.78C143.69,96.08,150.01,103.71,155.33,111.53z"/>
		<path class="st0" d="M101.82,21.81C45.58,21.81,0,67.39,0,123.62s45.58,101.82,101.82,101.82s101.82-45.58,101.82-101.82
			S158.05,21.81,101.82,21.81z M164.24,186.05c-6.27,6.27-14.94,9.25-24.99,9.25c-11.24,0-24.21-3.77-37.45-10.84
			c-5.96,3.18-11.93,5.74-17.8,7.57c-7.05,2.2-13.66,3.29-19.7,3.29c-10.21,0-18.76-3.13-24.91-9.28
			c-9.79-9.79-11.92-25.63-5.99-44.61c1.83-5.86,4.39-11.82,7.56-17.78C27.57,98.57,26.11,74.48,39.39,61.2
			c9.79-9.79,25.64-11.92,44.61-5.99c5.87,1.83,11.85,4.4,17.81,7.58c5.96-3.18,11.94-5.74,17.81-7.58
			c18.98-5.93,34.82-3.8,44.61,5.99c13.28,13.28,11.82,37.38-1.57,62.46c3.17,5.95,5.73,11.92,7.56,17.78
			C176.16,160.41,174.03,176.26,164.24,186.05z"/>
	</g>
	<g>
		<g>
			<path class="st1" d="M259.99,140.82c-5.44,0.21-9.92-0.98-13.45-3.56c-3.52-2.58-5.28-6.31-5.28-11.2c0-3.56,1.08-6.59,3.24-9.1
				c2.16-2.51,4.95-4.48,8.37-5.91c3.42-1.43,6.94-2.18,10.57-2.25c1.81-0.14,3.52,0,5.13,0.42c1.6,0.42,3.03,1.01,4.29,1.78v-4.39
				c0-3.28-0.7-5.41-2.09-6.38c-1.4-0.98-3.45-1.46-6.17-1.46c-2.93,0-6.02,0.54-9.26,1.62c-3.24,1.08-6.02,2.42-8.32,4.03
				l-5.34-9.1c2.86-1.81,6.31-3.4,10.36-4.76c4.05-1.36,8.23-2.04,12.56-2.04c6.49,0,11.37,1.31,14.65,3.92
				c3.28,2.62,4.92,7.34,4.92,14.18v23.12c0,1.46,0.33,2.3,0.99,2.51c0.66,0.21,2.18-0.03,4.55-0.73v7.43
				c-1.05,0.49-2.35,0.93-3.92,1.31c-1.57,0.38-3.26,0.58-5.08,0.58c-2.16,0-3.82-0.37-4.97-1.1c-1.15-0.73-1.97-1.97-2.46-3.71
				c-1.75,1.46-3.77,2.6-6.07,3.4C264.91,140.21,262.5,140.68,259.99,140.82z M259.78,130.56c3.91-0.14,7.13-0.91,9.68-2.3
				c2.55-1.39,3.75-3.38,3.61-5.96c-0.07-1.67-0.93-2.83-2.56-3.45c-1.64-0.63-3.68-0.87-6.12-0.73c-3.42,0.07-6.24,0.93-8.48,2.56
				c-2.23,1.64-3.31,3.47-3.24,5.49C252.81,129.31,255.18,130.77,259.78,130.56z"/>
			<path class="st1" d="M299.34,160.7V89.75h10.25l0.63,5.55c3.56-4.53,8.23-6.8,14.02-6.8c4.67,0,8.84,1.05,12.5,3.14
				c3.66,2.09,6.54,5.11,8.63,9.05c2.09,3.94,3.14,8.67,3.14,14.18c0,5.51-1.05,10.24-3.14,14.18c-2.09,3.94-4.97,6.96-8.63,9.05
				c-3.66,2.09-7.83,3.14-12.5,3.14c-2.58,0-4.99-0.51-7.22-1.52c-2.23-1.01-4.19-2.42-5.86-4.24v25.22H299.34z M323.82,130.56
				c3.7,0,6.77-1.36,9.21-4.08c2.44-2.72,3.66-6.59,3.66-11.61c0-5.02-1.22-8.89-3.66-11.61c-2.44-2.72-5.51-4.08-9.21-4.08
				c-3.7,0-6.77,1.36-9.21,4.08c-2.44,2.72-3.66,6.59-3.66,11.61c0,5.02,1.22,8.89,3.66,11.61
				C317.06,129.2,320.12,130.56,323.82,130.56z"/>
			<path class="st1" d="M358.67,160.7V89.75h10.25l0.63,5.55c3.56-4.53,8.23-6.8,14.02-6.8c4.67,0,8.84,1.05,12.5,3.14
				c3.66,2.09,6.54,5.11,8.63,9.05c2.09,3.94,3.14,8.67,3.14,14.18c0,5.51-1.05,10.24-3.14,14.18c-2.09,3.94-4.97,6.96-8.63,9.05
				c-3.66,2.09-7.83,3.14-12.5,3.14c-2.58,0-4.99-0.51-7.22-1.52c-2.23-1.01-4.19-2.42-5.86-4.24v25.22H358.67z M383.15,130.56
				c3.7,0,6.77-1.36,9.21-4.08c2.44-2.72,3.66-6.59,3.66-11.61c0-5.02-1.22-8.89-3.66-11.61c-2.44-2.72-5.51-4.08-9.21-4.08
				c-3.7,0-6.77,1.36-9.21,4.08c-2.44,2.72-3.66,6.59-3.66,11.61c0,5.02,1.22,8.89,3.66,11.61
				C376.38,129.2,379.45,130.56,383.15,130.56z"/>
			<path class="st1" d="M417.99,140.09V65.48h11.82v74.61H417.99z"/>
			<path class="st1" d="M450.01,81.49c-2.02,0-3.77-0.73-5.23-2.2c-1.47-1.46-2.2-3.21-2.2-5.23c0-2.02,0.73-3.77,2.2-5.23
				c1.46-1.46,3.21-2.2,5.23-2.2c2.02,0,3.77,0.73,5.23,2.2c1.46,1.46,2.2,3.21,2.2,5.23c0,2.02-0.73,3.77-2.2,5.23
				C453.78,80.76,452.04,81.49,450.01,81.49z M444.26,140.09V89.75h11.72v50.33H444.26z"/>
			<path class="st1" d="M492.18,141.24c-7.32,0-13.26-2.21-17.79-6.64c-4.54-4.43-6.8-11-6.8-19.72c0-5.44,1.01-10.13,3.03-14.07
				c2.02-3.94,4.85-6.97,8.48-9.1c3.63-2.13,7.78-3.19,12.45-3.19c4.67,0,8.65,1.13,11.93,3.4c3.28,2.27,5.79,5.35,7.53,9.26
				c1.74,3.91,2.62,8.3,2.62,13.18v2.72h-34.43c0.28,5.02,1.6,8.6,3.98,10.73c2.37,2.13,5.44,3.19,9.21,3.19
				c3.28,0,5.96-0.79,8.06-2.35c2.09-1.57,3.91-3.92,5.44-7.06l8.69,6.07c-2.58,4.81-5.74,8.28-9.47,10.41
				C501.37,140.17,497.06,141.24,492.18,141.24z M479.73,107.96h22.29c-0.56-3.28-1.76-5.81-3.61-7.59
				c-1.85-1.78-4.2-2.67-7.06-2.67c-3.07,0-5.6,0.84-7.59,2.51S480.43,104.47,479.73,107.96z"/>
			<path class="st1" d="M546.38,141.24c-4.6,0-8.74-1.05-12.4-3.14s-6.56-5.11-8.68-9.05c-2.13-3.94-3.19-8.67-3.19-14.18
				c0-5.51,1.06-10.24,3.19-14.18c2.13-3.94,5.02-6.96,8.68-9.05c3.66-2.09,7.8-3.14,12.4-3.14c5.3,0,9.66,1.92,13.08,5.75V65.48
				h11.82v74.61h-10.26l-0.52-5.76c-1.74,2.16-3.82,3.86-6.23,5.07S549.24,141.24,546.38,141.24z M546.91,130.56
				c3.7,0,6.76-1.36,9.21-4.08c2.44-2.72,3.66-6.59,3.66-11.61c0-5.02-1.22-8.89-3.66-11.61c-2.44-2.72-5.51-4.08-9.21-4.08
				c-3.7,0-6.77,1.36-9.21,4.08c-2.44,2.72-3.66,6.59-3.66,11.61c0,5.02,1.22,8.89,3.66,11.61
				C540.14,129.2,543.21,130.56,546.91,130.56z"/>
			<path class="st0" d="M638.25,141.24c-2.86,0-5.48-0.61-7.85-1.83c-2.37-1.22-4.43-2.91-6.17-5.07l-0.63,5.76h-10.26V65.48h11.82
				v28.78c1.67-1.81,3.63-3.23,5.86-4.24c2.23-1.01,4.64-1.52,7.22-1.52c4.67,0,8.84,1.05,12.5,3.14c3.66,2.09,6.54,5.11,8.63,9.05
				c2.09,3.94,3.14,8.67,3.14,14.18c0,5.51-1.05,10.24-3.14,14.18c-2.09,3.94-4.97,6.96-8.63,9.05S642.93,141.24,638.25,141.24z
				 M637.84,130.56c3.7,0,6.76-1.36,9.21-4.08c2.44-2.72,3.66-6.59,3.66-11.61c0-5.02-1.22-8.89-3.66-11.61
				c-2.44-2.72-5.51-4.08-9.21-4.08c-3.7,0-6.77,1.36-9.21,4.08c-2.44,2.72-3.66,6.59-3.66,11.61c0,5.02,1.22,8.89,3.66,11.61
				C631.07,129.2,634.14,130.56,637.84,130.56z"/>
			<path class="st0" d="M680.11,81.49c-2.02,0-3.77-0.73-5.23-2.2c-1.47-1.46-2.2-3.21-2.2-5.23c0-2.02,0.73-3.77,2.2-5.23
				c1.46-1.46,3.21-2.2,5.23-2.2c2.02,0,3.77,0.73,5.23,2.2c1.46,1.46,2.2,3.21,2.2,5.23c0,2.02-0.73,3.77-2.2,5.23
				C683.88,80.76,682.13,81.49,680.11,81.49z M674.35,140.09V89.75h11.72v50.33H674.35z"/>
			<path class="st0" d="M721.96,141.24c-4.6,0-8.74-1.1-12.4-3.3c-3.66-2.2-6.56-5.27-8.68-9.21c-2.13-3.94-3.19-8.56-3.19-13.86
				c0-5.3,1.06-9.92,3.19-13.86c2.13-3.94,5.02-7.01,8.68-9.21c3.66-2.2,7.8-3.3,12.4-3.3c4.74,0,8.95,1.1,12.61,3.3
				c3.66,2.2,6.54,5.27,8.63,9.21c2.09,3.94,3.14,8.56,3.14,13.86c0,5.3-1.05,9.92-3.14,13.86c-2.09,3.94-4.97,7.01-8.63,9.21
				C730.91,140.14,726.71,141.24,721.96,141.24z M721.96,130.56c3.7,0,6.71-1.36,9.05-4.08c2.34-2.72,3.5-6.59,3.5-11.61
				c0-5.02-1.17-8.89-3.5-11.61c-2.34-2.72-5.35-4.08-9.05-4.08c-3.63,0-6.59,1.36-8.89,4.08c-2.3,2.72-3.45,6.59-3.45,11.61
				c0,5.02,1.15,8.89,3.45,11.61C715.37,129.2,718.34,130.56,721.96,130.56z"/>
			<path class="st1" d="M756.49,140.09V89.75h10.57l0.73,6.07c0.98-2.09,2.62-3.84,4.92-5.23c2.3-1.39,4.95-2.09,7.95-2.09
				c3.28,0,6.14,0.77,8.58,2.3c2.44,1.54,4.33,3.73,5.65,6.59c1.32-2.58,3.26-4.71,5.81-6.38c2.55-1.67,5.46-2.51,8.74-2.51
				c4.95,0,8.95,1.73,11.98,5.18s4.55,8.32,4.55,14.6v31.81h-11.93V111c0-3.7-0.66-6.59-1.99-8.69c-1.33-2.09-3.18-3.14-5.55-3.14
				c-3,0-5.32,1.08-6.96,3.24c-1.64,2.16-2.46,5.23-2.46,9.21v28.46h-11.82V111c0-3.7-0.7-6.59-2.09-8.69
				c-1.4-2.09-3.28-3.14-5.65-3.14c-2.93,0-5.2,1.1-6.8,3.3c-1.61,2.2-2.41,5.25-2.41,9.16v28.46H756.49z"/>
			<path class="st1" d="M855.27,140.82c-5.44,0.21-9.92-0.98-13.45-3.56c-3.52-2.58-5.28-6.31-5.28-11.2c0-3.56,1.08-6.59,3.24-9.1
				c2.16-2.51,4.95-4.48,8.37-5.91c3.42-1.43,6.94-2.18,10.57-2.25c1.81-0.14,3.52,0,5.13,0.42c1.6,0.42,3.03,1.01,4.29,1.78v-4.39
				c0-3.28-0.7-5.41-2.09-6.38c-1.4-0.98-3.45-1.46-6.17-1.46c-2.93,0-6.02,0.54-9.26,1.62c-3.24,1.08-6.02,2.42-8.32,4.03
				l-5.34-9.1c2.86-1.81,6.31-3.4,10.36-4.76c4.05-1.36,8.23-2.04,12.56-2.04c6.49,0,11.37,1.31,14.65,3.92
				c3.28,2.62,4.92,7.34,4.92,14.18v23.12c0,1.46,0.33,2.3,0.99,2.51c0.66,0.21,2.18-0.03,4.55-0.73v7.43
				c-1.05,0.49-2.35,0.93-3.92,1.31c-1.57,0.38-3.26,0.58-5.07,0.58c-2.16,0-3.82-0.37-4.97-1.1c-1.15-0.73-1.97-1.97-2.46-3.71
				c-1.74,1.46-3.77,2.6-6.07,3.4C860.19,140.21,857.78,140.68,855.27,140.82z M855.06,130.56c3.9-0.14,7.13-0.91,9.68-2.3
				c2.55-1.39,3.75-3.38,3.61-5.96c-0.07-1.67-0.93-2.83-2.56-3.45c-1.64-0.63-3.68-0.87-6.12-0.73c-3.42,0.07-6.24,0.93-8.48,2.56
				c-2.23,1.64-3.31,3.47-3.24,5.49C848.09,129.31,850.46,130.77,855.06,130.56z"/>
			<path class="st1" d="M912.09,141.24c-4.95,0-8.74-0.91-11.35-2.72c-2.62-1.81-3.92-5.44-3.92-10.88V99.9h-9.63V89.75h9.63V72.07
				h11.72v17.68h13.92V99.9h-13.92v24.69c0,2.37,0.58,3.98,1.73,4.81c1.15,0.84,2.81,1.26,4.97,1.26c1.32,0,2.67-0.21,4.03-0.63
				c1.36-0.42,2.42-0.84,3.19-1.26v10.78c-1.26,0.49-2.83,0.89-4.71,1.2C915.86,141.08,913.97,141.24,912.09,141.24z"/>
			<path class="st1" d="M931.76,140.09V65.48h11.82v30.24c1.12-1.95,2.79-3.64,5.02-5.07c2.23-1.43,4.92-2.14,8.06-2.14
				c5.23,0,9.5,1.67,12.82,5.02c3.31,3.35,4.97,8.27,4.97,14.75v31.81h-11.82V111.1c0-3.98-0.8-6.96-2.41-8.95
				c-1.6-1.99-3.77-2.98-6.49-2.98c-3,0-5.44,1.03-7.32,3.09c-1.88,2.06-2.83,5.11-2.83,9.16v28.67H931.76z"/>
		</g>
		<g>
			<path class="st1" d="M392.54,181.37v-17.61h8.05c1.64,0,2.95,0.39,3.91,1.16c0.96,0.77,1.45,2.07,1.45,3.9
				c0,1.54-0.35,2.71-1.06,3.51c-0.7,0.8-1.68,1.29-2.92,1.47l3.77,7.57h-3.4l-3.4-7.44h-3.52v7.44H392.54z M395.43,171.21h4.75
				c0.86,0,1.52-0.18,1.99-0.55c0.47-0.37,0.7-0.98,0.7-1.84c0-0.84-0.23-1.44-0.7-1.81c-0.47-0.37-1.13-0.55-1.99-0.55h-4.75
				V171.21z"/>
			<path class="st1" d="M414.19,181.37v-17.61h11.77v2.69h-8.88v4.58h8.1v2.72h-8.1v4.93h9.15v2.69H414.19z"/>
			<path class="st1" d="M439.19,181.37l-6.26-17.61h3.12l4.6,13.63l4.6-13.63h3.12l-6.26,17.61H439.19z"/>
			<path class="st1" d="M462.84,181.77c-1.59,0-3.01-0.38-4.26-1.13c-1.25-0.75-2.23-1.82-2.93-3.21c-0.7-1.38-1.06-3.01-1.06-4.87
				c0-1.88,0.35-3.51,1.06-4.89c0.7-1.38,1.68-2.46,2.93-3.22s2.67-1.14,4.26-1.14c1.59,0,3.01,0.38,4.24,1.14s2.2,1.84,2.92,3.22
				c0.71,1.38,1.07,3.01,1.07,4.89c0,1.86-0.36,3.48-1.07,4.87c-0.71,1.38-1.68,2.45-2.92,3.21
				C465.84,181.39,464.43,181.77,462.84,181.77z M462.84,178.95c1.06,0,1.97-0.26,2.74-0.79c0.77-0.53,1.37-1.27,1.8-2.24
				c0.43-0.96,0.64-2.08,0.64-3.36c0-1.29-0.21-2.42-0.64-3.38c-0.43-0.96-1.03-1.71-1.8-2.24c-0.77-0.53-1.68-0.79-2.74-0.79
				c-1.04,0-1.95,0.26-2.74,0.79c-0.79,0.53-1.4,1.27-1.82,2.24c-0.43,0.96-0.64,2.09-0.64,3.38c0,1.27,0.21,2.39,0.64,3.36
				c0.43,0.96,1.03,1.71,1.82,2.24C460.88,178.69,461.8,178.95,462.84,178.95z"/>
			<path class="st1" d="M479.29,181.37v-17.61h2.89v14.91h9.18v2.69H479.29z"/>
			<path class="st1" d="M505.67,181.7c-2.2,0-3.87-0.58-5.03-1.75c-1.16-1.17-1.74-2.91-1.74-5.24v-10.94h2.94v10.79
				c0,1.51,0.34,2.6,1.02,3.28c0.68,0.68,1.61,1.02,2.8,1.02s2.12-0.34,2.79-1.02c0.67-0.68,1.01-1.77,1.01-3.28v-10.79h2.92v10.94
				c0,2.33-0.57,4.08-1.71,5.24C509.53,181.11,507.87,181.7,505.67,181.7z"/>
			<path class="st1" d="M525.51,181.37v-14.91h-5.31v-2.69h13.53v2.69h-5.28v14.91H525.51z"/>
			<path class="st1" d="M541.73,181.37v-17.61h2.89v17.61H541.73z"/>
			<path class="st1" d="M561.1,181.77c-1.59,0-3.01-0.38-4.26-1.13c-1.25-0.75-2.23-1.82-2.93-3.21c-0.7-1.38-1.06-3.01-1.06-4.87
				c0-1.88,0.35-3.51,1.06-4.89c0.7-1.38,1.68-2.46,2.93-3.22c1.25-0.76,2.67-1.14,4.26-1.14c1.59,0,3,0.38,4.24,1.14
				c1.23,0.76,2.2,1.84,2.92,3.22c0.71,1.38,1.07,3.01,1.07,4.89c0,1.86-0.36,3.48-1.07,4.87c-0.71,1.38-1.68,2.45-2.92,3.21
				C564.1,181.39,562.69,181.77,561.1,181.77z M561.1,178.95c1.06,0,1.97-0.26,2.74-0.79c0.77-0.53,1.37-1.27,1.8-2.24
				c0.43-0.96,0.64-2.08,0.64-3.36c0-1.29-0.21-2.42-0.64-3.38c-0.43-0.96-1.03-1.71-1.8-2.24c-0.77-0.53-1.68-0.79-2.74-0.79
				c-1.04,0-1.95,0.26-2.74,0.79c-0.79,0.53-1.4,1.27-1.82,2.24c-0.43,0.96-0.64,2.09-0.64,3.38c0,1.27,0.21,2.39,0.64,3.36
				c0.43,0.96,1.03,1.71,1.82,2.24C559.15,178.69,560.06,178.95,561.1,178.95z"/>
			<path class="st1" d="M577.55,181.37v-17.61h2.89l8.3,12.5v-12.5h2.94v17.61h-2.79l-8.45-12.85v12.85H577.55z"/>
			<path class="st1" d="M600.76,181.37v-17.61h2.89v17.61H600.76z"/>
			<path class="st1" d="M611.88,181.37v-2.69l8.7-12.22h-8.4v-2.69h12v2.69l-8.7,12.22h8.93v2.69H611.88z"/>
			<path class="st1" d="M632.63,181.37v-17.61h2.89v17.61H632.63z"/>
			<path class="st1" d="M644.63,181.37v-17.61h2.89l8.3,12.5v-12.5h2.94v17.61h-2.79l-8.45-12.85v12.85H644.63z"/>
			<path class="st1" d="M675.13,181.77c-1.59,0-3.01-0.38-4.24-1.13c-1.23-0.75-2.2-1.82-2.89-3.21c-0.7-1.38-1.04-3.01-1.04-4.87
				c0-1.88,0.35-3.51,1.04-4.89c0.7-1.38,1.66-2.46,2.89-3.22c1.23-0.76,2.64-1.14,4.24-1.14c1.31,0,2.51,0.23,3.61,0.69
				c1.1,0.46,2.01,1.05,2.73,1.77l-1.84,2.26c-0.5-0.55-1.15-1.01-1.95-1.36c-0.8-0.35-1.65-0.53-2.55-0.53
				c-1.06,0-1.97,0.27-2.73,0.8c-0.76,0.54-1.35,1.29-1.77,2.25c-0.42,0.96-0.63,2.08-0.63,3.36c0,1.26,0.21,2.37,0.63,3.33
				c0.42,0.96,1.01,1.71,1.77,2.25c0.76,0.54,1.67,0.8,2.73,0.8c0.79,0,1.45-0.08,1.97-0.24c0.53-0.16,0.99-0.36,1.4-0.59v-3.77
				h-2.89v-2.72h5.83v8.4c-0.77,0.54-1.71,0.96-2.8,1.27C677.54,181.62,676.37,181.77,675.13,181.77z"/>
			<path class="st1" d="M702.73,181.37v-17.61h5.66c1.76,0,3.28,0.33,4.56,0.98c1.28,0.65,2.27,1.63,2.97,2.94
				c0.7,1.31,1.04,2.93,1.04,4.88c0,1.93-0.35,3.55-1.04,4.85c-0.7,1.31-1.69,2.29-2.97,2.95c-1.28,0.66-2.8,0.99-4.56,0.99H702.73z
				 M705.62,178.68h2.54c1.81,0,3.22-0.52,4.24-1.57c1.02-1.05,1.52-2.56,1.52-4.54c0-2-0.51-3.51-1.52-4.55
				c-1.01-1.04-2.43-1.56-4.24-1.56h-2.54V178.68z"/>
			<path class="st1" d="M725.18,181.37v-17.61h8.05c1.64,0,2.95,0.39,3.91,1.16c0.96,0.77,1.45,2.07,1.45,3.9
				c0,1.54-0.35,2.71-1.06,3.51c-0.7,0.8-1.68,1.29-2.92,1.47l3.77,7.57h-3.4l-3.4-7.44h-3.52v7.44H725.18z M728.08,171.21h4.75
				c0.86,0,1.52-0.18,1.99-0.55c0.47-0.37,0.7-0.98,0.7-1.84c0-0.84-0.23-1.44-0.7-1.81c-0.47-0.37-1.13-0.55-1.99-0.55h-4.75
				V171.21z"/>
			<path class="st1" d="M753.35,181.7c-2.2,0-3.87-0.58-5.03-1.75c-1.16-1.17-1.73-2.91-1.73-5.24v-10.94h2.94v10.79
				c0,1.51,0.34,2.6,1.02,3.28c0.68,0.68,1.61,1.02,2.8,1.02c1.19,0,2.12-0.34,2.79-1.02c0.67-0.68,1.01-1.77,1.01-3.28v-10.79h2.92
				v10.94c0,2.33-0.57,4.08-1.71,5.24C757.22,181.11,755.55,181.7,753.35,181.7z"/>
			<path class="st1" d="M776.26,181.77c-1.59,0-3.01-0.38-4.24-1.13c-1.23-0.75-2.2-1.82-2.89-3.21c-0.7-1.38-1.04-3.01-1.04-4.87
				c0-1.88,0.35-3.51,1.04-4.89c0.7-1.38,1.66-2.46,2.89-3.22c1.23-0.76,2.64-1.14,4.24-1.14c1.31,0,2.51,0.23,3.61,0.69
				c1.1,0.46,2.01,1.05,2.73,1.77l-1.84,2.26c-0.5-0.55-1.15-1.01-1.95-1.36c-0.8-0.35-1.65-0.53-2.55-0.53
				c-1.06,0-1.97,0.27-2.73,0.8c-0.76,0.54-1.35,1.29-1.77,2.25c-0.42,0.96-0.63,2.08-0.63,3.36c0,1.26,0.21,2.37,0.63,3.33
				c0.42,0.96,1.01,1.71,1.77,2.25c0.76,0.54,1.67,0.8,2.73,0.8c0.79,0,1.45-0.08,1.97-0.24c0.53-0.16,0.99-0.36,1.4-0.59v-3.77
				h-2.89v-2.72h5.83v8.4c-0.77,0.54-1.71,0.96-2.8,1.27C778.67,181.62,777.51,181.77,776.26,181.77z"/>
			<path class="st1" d="M803.86,181.37v-17.61h2.89v17.61H803.86z"/>
			<path class="st1" d="M815.85,181.37v-17.61h2.89l8.3,12.5v-12.5h2.94v17.61h-2.79l-8.45-12.85v12.85H815.85z"/>
			<path class="st1" d="M843.79,181.37l-6.26-17.61h3.12l4.6,13.63l4.6-13.63h3.12l-6.26,17.61H843.79z"/>
			<path class="st1" d="M860.57,181.37v-17.61h11.77v2.69h-8.88v4.58h8.1v2.72h-8.1v4.93h9.16v2.69H860.57z"/>
			<path class="st1" d="M880.84,181.37v-17.61h2.89l8.3,12.5v-12.5h2.94v17.61h-2.79l-8.45-12.85v12.85H880.84z"/>
			<path class="st1" d="M908.28,181.37v-14.91h-5.31v-2.69h13.53v2.69h-5.28v14.91H908.28z"/>
			<path class="st1" d="M924.5,181.37v-17.61h2.89v17.61H924.5z"/>
			<path class="st1" d="M943.87,181.77c-1.59,0-3.01-0.38-4.26-1.13c-1.25-0.75-2.23-1.82-2.93-3.21c-0.7-1.38-1.06-3.01-1.06-4.87
				c0-1.88,0.35-3.51,1.06-4.89c0.7-1.38,1.68-2.46,2.93-3.22c1.25-0.76,2.67-1.14,4.26-1.14c1.59,0,3,0.38,4.24,1.14
				c1.23,0.76,2.2,1.84,2.92,3.22c0.71,1.38,1.07,3.01,1.07,4.89c0,1.86-0.36,3.48-1.07,4.87c-0.71,1.38-1.68,2.45-2.92,3.21
				C946.87,181.39,945.46,181.77,943.87,181.77z M943.87,178.95c1.06,0,1.97-0.26,2.74-0.79c0.77-0.53,1.37-1.27,1.8-2.24
				c0.43-0.96,0.64-2.08,0.64-3.36c0-1.29-0.21-2.42-0.64-3.38c-0.43-0.96-1.03-1.71-1.8-2.24c-0.77-0.53-1.68-0.79-2.74-0.79
				c-1.04,0-1.95,0.26-2.74,0.79c-0.79,0.53-1.4,1.27-1.82,2.24c-0.43,0.96-0.64,2.09-0.64,3.38c0,1.27,0.21,2.39,0.64,3.36
				c0.43,0.96,1.03,1.71,1.82,2.24C941.92,178.69,942.83,178.95,943.87,178.95z"/>
			<path class="st1" d="M960.32,181.37v-17.61h2.89l8.3,12.5v-12.5h2.94v17.61h-2.79l-8.45-12.85v12.85H960.32z"/>
		</g>
	</g>
</g>
<g>
	<path class="st1" d="M988.08,81.81c-1.13,0-2.19-0.21-3.18-0.64c-0.99-0.42-1.87-1.02-2.62-1.78c-0.76-0.76-1.35-1.63-1.78-2.62
		c-0.42-0.99-0.64-2.05-0.64-3.18c0-1.13,0.21-2.19,0.64-3.18c0.42-0.99,1.02-1.86,1.78-2.62c0.76-0.76,1.64-1.35,2.62-1.78
		c0.99-0.42,2.05-0.64,3.18-0.64c1.13,0,2.19,0.21,3.18,0.64c0.99,0.42,1.87,1.02,2.62,1.78c0.76,0.76,1.35,1.64,1.78,2.62
		c0.42,0.99,0.64,2.05,0.64,3.18c0,1.13-0.21,2.19-0.64,3.18c-0.42,0.99-1.02,1.87-1.78,2.62c-0.76,0.76-1.63,1.35-2.62,1.78
		S989.21,81.81,988.08,81.81z M988.08,79.98c1.18,0,2.26-0.29,3.22-0.86c0.96-0.57,1.73-1.35,2.31-2.32
		c0.57-0.97,0.86-2.04,0.86-3.21c0-1.18-0.29-2.26-0.86-3.22c-0.58-0.96-1.34-1.73-2.31-2.31c-0.96-0.57-2.04-0.86-3.22-0.86
		c-1.17,0-2.24,0.29-3.21,0.86c-0.97,0.57-1.75,1.34-2.32,2.31c-0.58,0.96-0.86,2.04-0.86,3.22c0,1.17,0.29,2.24,0.86,3.21
		c0.57,0.97,1.35,1.75,2.32,2.32C985.84,79.7,986.91,79.98,988.08,79.98z M984.73,78.23v-9.28h4.35c0.87,0,1.56,0.21,2.1,0.62
		c0.53,0.42,0.79,1.15,0.79,2.19c0,0.85-0.17,1.49-0.52,1.92c-0.34,0.43-0.8,0.71-1.37,0.84l1.72,3.71h-2.25l-1.46-3.63h-1.43v3.63
		H984.73z M986.67,72.8h2.12c0.33,0,0.61-0.07,0.83-0.23s0.33-0.42,0.33-0.81c0-0.37-0.11-0.63-0.33-0.78
		c-0.22-0.15-0.5-0.23-0.83-0.23h-2.12V72.8z"/>
</g>
</svg>
